<?xml version="1.0" encoding="UTF-8" standalone="no"?>
<svg width="65px" height="67px" viewBox="0 0 65 67" version="1.1" xmlns="http://www.w3.org/2000/svg" xmlns:xlink="http://www.w3.org/1999/xlink" xmlns:sketch="http://www.bohemiancoding.com/sketch/ns">
    <!-- Generator: Sketch 3.2.1 (9977) - http://www.bohemiancoding.com/sketch -->
    <title>Oval 361 + Group 10</title>
    <desc>Created with Sketch.</desc>
    <defs></defs>
    <g id="Page-1" stroke="none" stroke-width="1" fill="none" fill-rule="evenodd" sketch:type="MSPage">
        <g id="Desktop-HD" sketch:type="MSArtboardGroup" transform="translate(-687.000000, -1649.000000)">
            <g id="Oval-361-+-Group-10" sketch:type="MSLayerGroup" transform="translate(687.000000, 1650.200001)">
                <ellipse id="Oval-361" fill-opacity="0.149999991" fill="#141E41" sketch:type="MSShapeGroup" cx="32.66" cy="61.94" rx="30.495" ry="3.705"></ellipse>
                <g id="Group-9" transform="translate(0.375000, 0.500000)" stroke="#141E41" stroke-width="3" sketch:type="MSShapeGroup">
                    <path d="M10.2996826,48.223114 C18.8322191,48.223114 30.8990479,38.2162218 30.8990479,29.6836853 C30.8990479,21.1511488 23.9820604,14.2341614 15.4495239,14.2341614 C6.91698747,14.2341614 0,21.1511488 0,29.6836853 C0,38.2162218 1.76714616,48.223114 10.2996826,48.223114 Z" id="Oval-2" fill="#FFFFFF"></path>
                    <path d="M54.2175293,49.2530823 C62.7500658,49.2530823 64.5172119,38.2162218 64.5172119,29.6836853 C64.5172119,21.1511488 57.6002244,14.2341614 49.067688,14.2341614 C40.5351515,14.2341614 33.6181641,21.1511488 33.6181641,29.6836853 C33.6181641,38.2162218 45.6849928,49.2530823 54.2175293,49.2530823 Z" id="Oval-3" fill="#FFFFFF"></path>
                    <path d="M18.9411163,62.2924805 C25.3974023,62.2924805 30.6312561,57.0586266 30.6312561,50.6023407 C30.6312561,44.1460548 25.3974023,38.9122009 18.9411163,38.9122009 C12.4848304,38.9122009 7.25097656,48.2659278 7.25097656,54.7222137 C7.25097656,61.1784997 12.4848304,62.2924805 18.9411163,62.2924805 Z" id="Oval-5" fill="#FFFFFF"></path>
                    <path d="M45.7202911,62.2924805 C52.1765771,62.2924805 57.4104309,61.1784997 57.4104309,54.7222137 C57.4104309,48.2659278 52.1765771,38.9122009 45.7202911,38.9122009 C39.2640052,38.9122009 34.0301514,44.1460548 34.0301514,50.6023407 C34.0301514,57.0586266 39.2640052,62.2924805 45.7202911,62.2924805 Z" id="Oval-6" fill="#FFFFFF"></path>
                    <path d="M32.2277069,57.6782227 C44.8843027,57.6782227 55.1445007,50.713923 55.1445007,38.0573273 C55.1445007,25.4007315 44.8843027,15.1405334 32.2277069,15.1405334 C19.5711112,15.1405334 9.31091309,25.4007315 9.31091309,38.0573273 C9.31091309,50.713923 19.5711112,57.6782227 32.2277069,57.6782227 Z" id="Oval-1" fill="#FFBE28"></path>
                    <path d="M32.2277069,45.4323287 C44.1592477,45.4323287 55.3427696,38.782098 55.3427696,26.8505572 C55.3427696,14.9190164 44.1592477,12.8020768 32.2277069,12.8020768 C20.2961661,12.8020768 9.1126442,14.9190164 9.1126442,26.8505572 C9.1126442,38.782098 20.2961661,45.4323287 32.2277069,45.4323287 Z" id="Oval-7" fill="#FFFFFF"></path>
                    <path d="M32.2663307,34.3299219 C29.1488661,36.5839154 24.9759942,37.7713754 20.6695567,37.7713754 C11.9647824,37.7713754 3.80573273,32.9196334 3.80573273,24.2148591 C3.80573273,15.5100849 11.9647824,13.9656505 20.6695567,13.9656505 C24.9759942,13.9656505 29.1488661,14.3436496 32.2663307,15.7796364 C35.3837954,14.3436496 39.5566672,13.9656505 43.8631048,13.9656505 C52.567879,13.9656505 60.7269287,15.5100849 60.7269287,24.2148591 C60.7269287,32.9196334 52.567879,37.7713754 43.8631048,37.7713754 C39.5566672,37.7713754 35.3837954,36.5839154 32.2663307,34.3299219 Z" id="Oval-9" fill="#FFFFFF"></path>
                    <path d="M32.2277069,22.4399528 C40.3244985,22.4399528 46.8882449,22.4040897 46.8882449,14.3072981 C46.8882449,6.21050655 40.3244985,2.34108358 32.2277069,2.34108358 C24.1309153,2.34108358 17.5671689,6.21050655 17.5671689,14.3072981 C17.5671689,22.4040897 24.1309153,22.4399528 32.2277069,22.4399528 Z" id="Oval-8" fill="#FFBE28"></path>
                    <path d="M32.2277069,27.8026481 C38.3320257,27.8026481 43.2805538,24.0232493 43.2805538,17.9189305 C43.2805538,11.8146118 38.3320257,15.4578805 32.2277069,15.4578805 C26.1233881,15.4578805 21.17486,11.8146118 21.17486,17.9189305 C21.17486,24.0232493 26.1233881,27.8026481 32.2277069,27.8026481 Z" id="Oval-4" fill="#FFFFFF"></path>
                    <path d="M23.3325348,51.4361493 C23.3325348,51.4361493 35.7765913,49.3306858 46.7206478,42.65052" id="Path-1" stroke-linecap="round" stroke-linejoin="round" transform="translate(35.026591, 47.043335) scale(1, -1) translate(-35.026591, -47.043335) "></path>
                    <path d="M30.1986694,9.14611816 L40.9103394,0.0823974609" id="Line" stroke-linecap="round" stroke-linejoin="round"></path>
                    <path d="M23.6068726,9.14611816 L34.3185425,0.0823974609" id="Line-2" stroke-linecap="round" stroke-linejoin="round" transform="translate(28.962708, 4.614258) scale(1, -1) translate(-28.962708, -4.614258) "></path>
                </g>
            </g>
        </g>
    </g>
</svg>