<?xml version="1.0" encoding="UTF-8" standalone="no"?>
<svg width="182px" height="73px" viewBox="0 0 182 73" version="1.1" xmlns="http://www.w3.org/2000/svg" xmlns:xlink="http://www.w3.org/1999/xlink" xmlns:sketch="http://www.bohemiancoding.com/sketch/ns">
    <!-- Generator: Sketch 3.2.1 (9977) - http://www.bohemiancoding.com/sketch -->
    <title>Group 9 + SUMO 5 + SIGNUP 2</title>
    <desc>Created with Sketch.</desc>
    <defs>
        <filter x="-50%" y="-50%" width="200%" height="200%" filterUnits="objectBoundingBox" id="filter-1">
            <feOffset dx="0" dy="0" in="SourceAlpha" result="shadowOffsetOuter1"></feOffset>
            <feGaussianBlur stdDeviation="2" in="shadowOffsetOuter1" result="shadowBlurOuter1"></feGaussianBlur>
            <feColorMatrix values="0 0 0 0 0.062745098   0 0 0 0 0.0588235294   0 0 0 0 0.0588235294  0 0 0 0.14 0" in="shadowBlurOuter1" type="matrix" result="shadowMatrixOuter1"></feColorMatrix>
            <feMerge>
                <feMergeNode in="shadowMatrixOuter1"></feMergeNode>
                <feMergeNode in="SourceGraphic"></feMergeNode>
            </feMerge>
        </filter>
    </defs>
    <g id="Page-1" stroke="none" stroke-width="1" fill="none" fill-rule="evenodd" sketch:type="MSPage">
        <g id="Desktop-HD" sketch:type="MSArtboardGroup" transform="translate(-101.000000, -59.000000)">
            <g id="Group-9-+-SUMO-5-+-SIGNUP-2" sketch:type="MSLayerGroup" transform="translate(100.987505, 60.687502)">
                <g id="Group-9-+-SUMO-5-+-SIGNUP">
                    <g id="Oval-361-+-Group-9" transform="translate(0.273496, 0.479624)" sketch:type="MSShapeGroup">
                        <ellipse id="Oval-361" fill-opacity="0.149999991" fill="#141E41" cx="35.7389982" cy="66.1983716" rx="33.0260833" ry="4.01251479"></ellipse>
                        <g id="Group-9" transform="translate(0.710719, 0.304594)" stroke="#141E41" stroke-width="3.24899983">
                            <path d="M11.1545557,52.2256298 C20.3952922,52.2256298 33.4636671,41.388166 33.4636671,32.1474295 C33.4636671,22.906693 25.9725701,15.415596 16.7318335,15.415596 C7.49109704,15.415596 0,22.906693 0,32.1474295 C0,41.388166 1.91381919,52.2256298 11.1545557,52.2256298 Z" id="Oval-2" fill="#FFFFFF"></path>
                            <path d="M58.7175812,53.3410854 C67.9583177,53.3410854 69.8721369,41.388166 69.8721369,32.1474295 C69.8721369,22.906693 62.3810399,15.415596 53.1403033,15.415596 C43.8995668,15.415596 36.4084698,22.906693 36.4084698,32.1474295 C36.4084698,41.388166 49.4768447,53.3410854 58.7175812,53.3410854 Z" id="Oval-3" fill="#FFFFFF"></path>
                            <path d="M20.5132279,67.4627529 C27.5053852,67.4627529 33.1736486,61.7944894 33.1736486,54.8023321 C33.1736486,47.8101749 27.5053852,42.1419114 20.5132279,42.1419114 C13.5210706,42.1419114 7.85280721,52.2719971 7.85280721,59.2641544 C7.85280721,66.2563117 13.5210706,67.4627529 20.5132279,67.4627529 Z" id="Oval-5" fill="#FFFFFF"></path>
                            <path d="M49.5150727,67.4627529 C56.50723,67.4627529 62.1754935,66.2563117 62.1754935,59.2641544 C62.1754935,52.2719971 56.50723,42.1419114 49.5150727,42.1419114 C42.5229155,42.1419114 36.854652,47.8101749 36.854652,54.8023321 C36.854652,61.7944894 42.5229155,67.4627529 49.5150727,67.4627529 Z" id="Oval-6" fill="#FFFFFF"></path>
                            <path d="M34.9026048,62.4655119 C48.6096973,62.4655119 59.7214912,54.9231758 59.7214912,41.2160833 C59.7214912,27.5089908 48.6096973,16.3971969 34.9026048,16.3971969 C21.1955123,16.3971969 10.0837184,27.5089908 10.0837184,41.2160833 C10.0837184,54.9231758 21.1955123,62.4655119 34.9026048,62.4655119 Z" id="Oval-1" fill="#27C9D2"></path>
                            <path d="M34.9026048,49.2032095 C47.8244628,49.2032095 59.9362164,42.0010099 59.9362164,29.0791519 C59.9362164,16.1572939 47.8244628,13.8646484 34.9026048,13.8646484 C21.9807468,13.8646484 9.86899315,16.1572939 9.86899315,29.0791519 C9.86899315,42.0010099 21.9807468,49.2032095 34.9026048,49.2032095 Z" id="Oval-7" fill="#FFFFFF"></path>
                            <path d="M34.9444344,37.1793035 C31.5682203,39.6203784 27.0490003,40.9063975 22.3851287,40.9063975 C12.9578587,40.9063975 4.12160833,35.6519611 4.12160833,26.2246911 C4.12160833,16.797421 12.9578587,15.1247987 22.3851287,15.1247987 C27.0490003,15.1247987 31.5682203,15.5341717 34.9444344,17.0893454 C38.3206484,15.5341717 42.8398684,15.1247987 47.50374,15.1247987 C56.9310101,15.1247987 65.7672604,16.797421 65.7672604,26.2246911 C65.7672604,35.6519611 56.9310101,40.9063975 47.50374,40.9063975 C42.8398684,40.9063975 38.3206484,39.6203784 34.9444344,37.1793035 Z" id="Oval-9" fill="#FFFFFF"></path>
                            <path d="M34.9026048,24.3024676 C43.6714296,24.3024676 50.7799666,24.2636279 50.7799666,15.4948031 C50.7799666,6.72597825 43.6714296,2.53539339 34.9026048,2.53539339 C26.13378,2.53539339 19.0252429,6.72597825 19.0252429,15.4948031 C19.0252429,24.2636279 26.13378,24.3024676 34.9026048,24.3024676 Z" id="Oval-8" fill="#27C9D2"></path>
                            <path d="M34.9026048,30.1102663 C41.5135817,30.1102663 46.8728374,26.0171777 46.8728374,19.4062008 C46.8728374,12.7952239 41.5135817,17.0116337 34.9026048,17.0116337 C28.2916279,17.0116337 22.9323722,12.7952239 22.9323722,19.4062008 C22.9323722,26.0171777 28.2916279,30.1102663 34.9026048,30.1102663 Z" id="Oval-4" fill="#FFFFFF"></path>
                            <path d="M25.2691339,55.7053468 C25.2691339,55.7053468 38.7460464,53.42513 50.598459,46.1905108" id="Path-1" stroke-linecap="round" stroke-linejoin="round" transform="translate(37.933796, 50.947929) scale(1, -1) translate(-37.933796, -50.947929) "></path>
                            <path d="M32.7051573,9.90524546 L44.3058952,0.0892364456" id="Line" stroke-linecap="round" stroke-linejoin="round"></path>
                            <path d="M25.5662417,9.90524546 L37.1669796,0.0892364456" id="Line-2" stroke-linecap="round" stroke-linejoin="round" transform="translate(31.366611, 4.997241) scale(1, -1) translate(-31.366611, -4.997241) "></path>
                        </g>
                    </g>
                    <g id="SUMO-5-+-SIGNUP" transform="translate(84.374995, 10.499999)" font-weight="686" font-family="Museo Sans Rounded" line-spacing="42.3749975" sketch:type="MSTextLayer" font-size="26.2499984">
                        <text id="SUMO-5" fill="white" filter="url(#filter-1)">
                            <tspan x="0" y="51.2499984" fill="#FFFFFF">SUMO</tspan>
                        </text>
                        <text id="SIGNUP" fill="#131E41">
                            <tspan x="0" y="25">SIGNUP</tspan>
                        </text>
                    </g>
                </g>
            </g>
        </g>
    </g>
</svg>