<svg xmlns="http://www.w3.org/2000/svg" xmlns:xlink="http://www.w3.org/1999/xlink" version="1.1" x="0" y="0" width="50" height="50" viewBox="0 0 50 50" enable-background="new 0 0 50 50" xml:space="preserve"><path fill="#FFFFFF" d="M33.93 15.96H16.07c-0.61 0-1.11 0.5-1.11 1.11V34.93c0 0.61 0.5 1.11 1.11 1.11h9.62v-7.77h-2.62v-3.03h2.62V23c0-2.59 1.58-4 3.9-4 1.11 0 2.06 0.08 2.34 0.12v2.71l-1.6 0c-1.26 0-1.5 0.6-1.5 1.48v1.93h3l-0.39 3.03h-2.61v7.77h5.12c0.61 0 1.11-0.5 1.11-1.11V17.07C35.04 16.46 34.54 15.96 33.93 15.96z"/></svg>