<svg xmlns="http://www.w3.org/2000/svg" xmlns:xlink="http://www.w3.org/1999/xlink" version="1.1" x="0" y="0" width="50" height="50" viewBox="0 0 50 50" enable-background="new 0 0 50 50" xml:space="preserve"><path fill-rule="evenodd" clip-rule="evenodd" fill="#FFFFFF" d="M21.73 35.06c1.15-1.58 1.36-3.45 1.85-5.19 0.37 0.28 0.71 0.6 1.11 0.83 1.16 0.66 2.35 0.51 3.51 0.02 2.05-0.87 3.05-2.58 3.54-4.65 0.33-1.39 0.42-2.8-0.08-4.18s-1.4-2.44-2.65-3.2c-1.37-0.83-2.87-1.12-4.43-1.01 -1.64 0.12-3.19 0.6-4.46 1.67 -1.38 1.16-2.29 2.61-2.47 4.46 -0.12 1.26 0.08 2.44 0.81 3.47 0.32 0.44 0.82 0.77 1.28 1.09 0.23 0.16 0.49 0.1 0.56-0.26 0.05-0.27 0.17-0.54 0.2-0.82 0.02-0.18-0.02-0.43-0.13-0.56 -0.63-0.73-0.78-1.59-0.71-2.49 0.08-1.02 0.4-1.97 1.04-2.8 0.73-0.97 1.7-1.56 2.86-1.83 1.26-0.29 2.5-0.25 3.68 0.3 1.31 0.6 2 1.66 2.15 3.1 0.17 1.58-0.1 3.07-0.81 4.47 -0.45 0.88-1.1 1.57-2.14 1.79 -1.15 0.25-2.53-0.63-2.11-2.11 0.28-0.99 0.57-1.99 0.82-2.99 0.17-0.66 0.21-1.32-0.3-1.88 -0.64-0.71-1.45-0.55-2.06-0.07 -0.67 0.52-0.92 1.27-0.98 2.1 -0.04 0.61 0.1 1.19 0.23 1.79 0.08 0.33-0.03 0.72-0.11 1.08 -0.42 1.8-0.88 3.6-1.27 5.4 -0.14 0.64-0.1 1.31-0.14 2.01 -1.59-0.64-2.89-1.68-3.97-2.98 -1.85-2.24-2.71-4.86-2.42-7.74 0.74-7.3 7.15-10.32 11.73-9.82 7.6 0.83 11.03 8.08 9.29 13.8C33.39 33.62 27.49 36.73 21.73 35.06z"/></svg>