<svg xmlns="http://www.w3.org/2000/svg" xmlns:xlink="http://www.w3.org/1999/xlink" version="1.1" x="0" y="0" width="50" height="50" viewBox="0 0 50 50" enable-background="new 0 0 50 50" xml:space="preserve"><path fill="#FFFFFF" d="M35.59 18.44c-0.78 0.35-1.62 0.58-2.49 0.68 0.9-0.54 1.58-1.39 1.91-2.4 -0.84 0.5-1.77 0.86-2.76 1.05 -0.79-0.84-1.92-1.37-3.17-1.37 -2.4 0-4.34 1.94-4.34 4.34 0 0.34 0.04 0.67 0.11 0.99 -3.61-0.18-6.81-1.91-8.95-4.54 -0.37 0.64-0.59 1.39-0.59 2.18 0 1.51 0.77 2.84 1.93 3.62 -0.71-0.02-1.38-0.22-1.97-0.54 0 0.02 0 0.04 0 0.05 0 2.1 1.5 3.86 3.48 4.26 -0.36 0.1-0.75 0.15-1.14 0.15 -0.28 0-0.55-0.03-0.82-0.08 0.55 1.73 2.16 2.98 4.06 3.02 -1.49 1.17-3.36 1.86-5.4 1.86 -0.35 0-0.7-0.02-1.04-0.06 1.92 1.23 4.21 1.95 6.66 1.95 7.99 0 12.36-6.62 12.36-12.36 0-0.19 0-0.38-0.01-0.56C34.27 20.08 35 19.32 35.59 18.44z"/></svg>